<svg height="640pt" viewBox="-20 -75 640 640" width="640pt" xmlns="http://www.w3.org/2000/svg"><path d="m570 426.332031h-140v-40h160c5.523438 0 10-4.476562 10-10-.203125-161.691406-128.398438-294.199219-290-299.75v-60.25h40v-20h-100v20h40v60.25c-161.601562 5.550781-289.796875 138.058594-290 299.75 0 5.523438 4.476562 10 10 10h160v40h-140c-16.566406 0-30 13.433594-30 30 0 16.570313 13.433594 30 30 30h540c16.566406 0 30-13.429687 30-30 0-16.566406-13.433594-30-30-30zm-270-330c150.671875.175781 274.261719 119.425781 279.820312 270h-559.640624c5.558593-150.574219 129.148437-269.824219 279.820312-270zm-110 290h220v40h-220zm380 80h-540c-5.523438 0-10-4.476562-10-10 0-5.519531 4.476562-10 10-10h540c5.523438 0 10 4.480469 10 10 0 5.523438-4.476562 10-10 10zm0 0"/><path d="m300 116.332031c-127.71875-.480469-236.710938 92.253907-256.679688 218.398438l19.75 3.203125c18.449219-116.4375 119.039063-202.03125 236.929688-201.601563zm0 0"/></svg>