<?xml version="1.0" encoding="iso-8859-1"?>
<!-- Generator: Adobe Illustrator 19.0.0, SVG Export Plug-In . SVG Version: 6.00 Build 0)  -->
<svg version="1.1" id="Capa_1" xmlns="http://www.w3.org/2000/svg" xmlns:xlink="http://www.w3.org/1999/xlink" x="0px" y="0px"
	 viewBox="0 0 512 512" style="enable-background:new 0 0 512 512;" xml:space="preserve">
<g>
	<g>
		<path d="M416.307,93.909c-3.651-6.719-10.669-10.891-18.316-10.891H178.782c-7.646,0-14.665,4.174-18.316,10.891
			c-3.652,6.717-3.337,14.876,0.822,21.293l74.082,114.324c1.993,3.492,21.379,35.952,53.018,35.952
			c29.032,0,49-29.533,52.806-35.621l74.292-114.653C419.642,108.786,419.957,100.627,416.307,93.909z M402.728,106.938
			l-74.327,114.709l-0.071,0.111c-0.727,1.164-18.032,28.521-39.945,28.521c-23.72,0-39.716-28.103-39.867-28.374l-0.127-0.23
			l-74.35-114.737c-1.127-1.739-1.212-3.951-0.223-5.769c0.99-1.821,2.892-2.952,4.963-2.952h219.208
			c2.072,0,3.974,1.131,4.962,2.952C403.941,102.988,403.856,105.199,402.728,106.938z"/>
	</g>
</g>
<g>
	<g>
		<path d="M358.544,133.207c-3.522-2.284-8.227-1.278-10.509,2.244l-4.173,6.439c-2.283,3.523-1.352,8.347,2.245,10.51
			c4.933,2.967,9.055,0,10.509-2.244l4.173-6.439C363.072,140.194,362.067,135.489,358.544,133.207z"/>
	</g>
</g>
<g>
	<g>
		<path d="M343.393,156.591c-3.521-2.284-8.227-1.278-10.509,2.244l-18.804,29.018c-2.283,3.523-1.167,8.066,2.245,10.51
			c4.149,2.973,9.054,0.001,10.509-2.244l18.804-29.018C347.921,163.578,346.916,158.872,343.393,156.591z"/>
	</g>
</g>
<g>
	<g>
		<path d="M291.155,379.497c0,4.197,3.401,7.599,7.599,7.599c4.198,0,7.599-3.402,7.599-7.599v-31.112
			c0.117-48.793,11.042-63.377,14.388-66.685c0.134-0.133,0.255-0.273,0.377-0.412c19.613-11.636,32.268-30.42,35.508-35.607
			l93.187-143.81c4.963-7.658,5.339-17.396,0.981-25.413c-4.358-8.018-12.733-12.998-21.859-12.998h-220.02l8.097-8.097
			c3.759-3.759,5.829-8.757,5.829-14.074c0-5.316-2.07-10.314-5.829-14.073c-36.287-36.287-95.328-36.287-131.615,0
			c-36.286,36.286-36.286,95.328,0,131.614c3.759,3.759,8.757,5.829,14.073,5.829c5.316,0,10.315-2.07,14.073-5.829l21.057-21.057
			c2.968-2.968,2.968-7.78,0-10.746c-2.968-2.968-7.78-2.968-10.746,0l-10.349,10.349c-1.864-2.164-3.668-4.306-4.883-5.864
			c-13.933-17.99-13.849-38.254-13.837-38.737l31.752,8.394c0.141,0.233,0.272,0.471,0.421,0.7l93.188,143.812
			c3.239,5.185,15.867,23.93,35.441,35.568c0.094,0.1,0.182,0.203,0.284,0.299c3.413,3.253,14.548,17.746,14.548,67.625v102.505
			c-0.137,6.132-1.902,16.323-12.106,16.323h-20.624c-12.13,0-21.999,9.869-21.999,21.999S225.557,512,237.687,512h101.397
			c12.13,0,21.999-9.869,21.999-21.999s-9.869-21.999-21.999-21.999h-20.628c-10.126,0-11.934-10.102-12.102-16.194l0.003-47.824
			c0-4.197-3.401-7.599-7.599-7.599c-4.198,0-7.599,3.402-7.599,7.599l-0.003,47.923l0.002,0.19
			c0.36,14.347,7.725,31.102,27.299,31.102h20.628c3.75,0,6.801,3.051,6.801,6.801c0,3.75-3.051,6.801-6.801,6.801H237.687
			c-3.75,0-6.801-3.051-6.801-6.801c0-3.75,3.051-6.801,6.801-6.801h20.624c19.684,0,27.011-16.854,27.304-31.287l0.001-102.74
			c0-28.421-3.545-47.112-7.938-59.368c3.446,0.643,7.015,1.003,10.707,1.003c3.652,0,7.184-0.351,10.594-0.98
			c-4.431,12.374-7.758,30.873-7.825,58.538V379.497z M100.707,145.3c0.818,0.818,1.655,1.603,2.501,2.372
			c0,0-3.791,3.676-7.062,0.41c-30.387-30.333-30.361-79.76,0-110.121c30.361-30.361,79.661-30.26,110.122,0
			c3.814,3.789-1.031,7.683-1.031,7.683c-0.77-0.846-1.555-1.683-2.373-2.501c-14.104-14.104-32.591-21.156-51.077-21.156
			s-36.973,7.052-51.077,21.156C72.498,71.355,72.498,117.091,100.707,145.3z M194.235,56.646l-6.814,6.814h-30.165l-6.926-26.236
			c0.484-0.012,0.968-0.035,1.454-0.035c13.842,0,26.932,4.898,37.289,13.873C189.073,51.061,191.697,53.429,194.235,56.646z
			 M125.977,76.457c-1.398,2.572-2.303,5.321-2.732,8.121l-25.828-6.828c-0.083-0.021-0.165-0.033-0.248-0.053
			c2.679-8.897,7.529-17.05,14.285-23.805c6.754-6.754,14.905-11.604,23.8-14.284c0.018,0.082,0.03,0.163,0.052,0.245l6.435,24.374
			C135.097,65.906,129.34,70.272,125.977,76.457z M288.385,275.609c-30.782,0-52.953-34.135-55.38-38.028L139.711,93.604
			c-1.931-2.98-2.077-6.769-0.381-9.888c1.696-3.12,4.956-5.058,8.506-5.058h281.099c3.55,0,6.81,1.937,8.506,5.057
			s1.549,6.908-0.382,9.889l-93.223,143.866l-0.071,0.111C341.338,241.473,319.164,275.609,288.385,275.609z"/>
	</g>
</g>
<g>
</g>
<g>
</g>
<g>
</g>
<g>
</g>
<g>
</g>
<g>
</g>
<g>
</g>
<g>
</g>
<g>
</g>
<g>
</g>
<g>
</g>
<g>
</g>
<g>
</g>
<g>
</g>
<g>
</g>
</svg>
