<?xml version="1.0" encoding="iso-8859-1"?>
<!-- Generator: Adobe Illustrator 18.1.1, SVG Export Plug-In . SVG Version: 6.00 Build 0)  -->
<svg version="1.1" id="Capa_1" xmlns="http://www.w3.org/2000/svg" xmlns:xlink="http://www.w3.org/1999/xlink" x="0px" y="0px"
	 viewBox="0 0 48.055 48.055" style="enable-background:new 0 0 48.055 48.055;" xml:space="preserve">
<g>
	<path style="fill:#010002;" d="M24.138,22.988h16.719c0.297,0,0.538-0.241,0.538-0.538v-7.753c0-0.297-0.241-0.537-0.538-0.537
		H24.138c-0.297,0-0.537,0.24-0.537,0.537v7.753C23.601,22.747,23.841,22.988,24.138,22.988z M24.674,16.234L24.674,16.234
		c0.001-0.553,0.448-1,1.001-1h13.646c0.554,0,1,0.447,1,1v4.679c0,0.553-0.446,1-1,1H25.674c-0.551,0-1-0.448-1-1
		C24.674,20.913,24.674,16.234,24.674,16.234z M43.035,10.434h-3.069H11.748V9.965c0-2.553-2.093-4.631-4.666-4.631H4.666
		C2.093,5.334,0,7.412,0,9.966v28.122c0,2.554,2.093,4.632,4.666,4.632h2.416c0.333,0,0.658-0.038,0.972-0.104h34.981
		c2.768-0.001,5.02-2.236,5.02-4.982v-22.22C48.055,12.668,45.803,10.434,43.035,10.434z M9.626,38.087
		c0,1.383-1.142,2.508-2.544,2.508H4.666c-1.401-0.001-2.542-1.126-2.542-2.509V9.965c0-1.383,1.141-2.507,2.542-2.507h2.416
		c1.402,0,2.544,1.124,2.544,2.507C9.626,9.965,9.626,38.087,9.626,38.087z M43.035,40.54h-32.01
		c0.451-0.713,0.723-1.549,0.723-2.451V12.512h28.217h3.069c1.622,0,2.942,1.303,2.942,2.903v22.221h0.001
		C45.977,39.237,44.657,40.54,43.035,40.54z M24.482,29.882h2.28c0.792,0,1.436-0.645,1.436-1.437v-0.743
		c0-0.792-0.644-1.437-1.436-1.437h-2.28c-0.792,0-1.436,0.645-1.436,1.437v0.743C23.046,29.237,23.69,29.882,24.482,29.882z
		 M23.796,27.702c0-0.379,0.308-0.687,0.686-0.687h2.28c0.378,0,0.686,0.308,0.686,0.687v0.743c0,0.379-0.308,0.687-0.686,0.687
		h-2.28c-0.378,0-0.686-0.308-0.686-0.687C23.796,28.445,23.796,27.702,23.796,27.702z M31.358,29.882h2.279
		c0.385,0,0.745-0.149,1.017-0.421c0.271-0.271,0.42-0.633,0.419-1.016v-0.743c0-0.792-0.644-1.437-1.436-1.437h-2.279
		c-0.792,0-1.436,0.645-1.436,1.437v0.743C29.922,29.237,30.566,29.882,31.358,29.882z M31.358,27.015h2.279
		c0.378,0,0.686,0.308,0.686,0.687v0.744c0,0.183-0.07,0.355-0.2,0.484c-0.129,0.13-0.302,0.201-0.485,0.201h-2.279
		c-0.378,0-0.686-0.308-0.686-0.687v-0.742h-0.001C30.672,27.323,30.98,27.015,31.358,27.015z M38.055,29.882h2.279
		c0.791,0,1.436-0.645,1.437-1.437v-0.743c0-0.792-0.645-1.437-1.437-1.437h-2.279c-0.792,0-1.437,0.645-1.437,1.437v0.743
		C36.619,29.237,37.263,29.882,38.055,29.882z M37.369,27.702c0-0.379,0.308-0.687,0.687-0.687h2.279
		c0.379,0,0.687,0.308,0.687,0.687v0.742c-0.001,0.379-0.309,0.688-0.687,0.688h-2.279c-0.379,0-0.687-0.308-0.687-0.687V27.702z
		 M24.572,34.457h2.28c0.792,0,1.436-0.644,1.436-1.436v-0.744c0-0.792-0.644-1.436-1.436-1.436h-2.28
		c-0.792,0-1.436,0.644-1.436,1.436v0.744C23.136,33.812,23.78,34.457,24.572,34.457z M23.886,32.277
		c0-0.378,0.308-0.686,0.686-0.686h2.28c0.378,0,0.686,0.308,0.686,0.686v0.744c0,0.378-0.308,0.686-0.686,0.686h-2.28
		c-0.378,0-0.686-0.308-0.686-0.686C23.886,33.021,23.886,32.277,23.886,32.277z M31.448,34.457h2.28
		c0.792,0,1.437-0.644,1.437-1.436v-0.744c0-0.792-0.645-1.436-1.437-1.436h-2.28c-0.792,0-1.436,0.644-1.436,1.436v0.744
		C30.012,33.812,30.656,34.457,31.448,34.457z M30.762,32.277c0-0.378,0.308-0.686,0.686-0.686h2.28
		c0.379,0,0.687,0.308,0.687,0.686v0.744c0,0.378-0.308,0.686-0.687,0.686h-2.28c-0.378,0-0.686-0.308-0.686-0.686V32.277z
		 M38.144,34.457h2.28c0.792,0,1.436-0.644,1.436-1.436v-0.744c0-0.792-0.644-1.436-1.436-1.436h-2.28
		c-0.792,0-1.437,0.644-1.437,1.436v0.744C36.708,33.812,37.352,34.457,38.144,34.457z M37.458,32.277
		c0-0.378,0.308-0.686,0.687-0.686h2.28c0.378,0,0.686,0.308,0.686,0.686v0.744c0,0.378-0.308,0.686-0.686,0.686h-2.28
		c-0.379,0-0.687-0.308-0.687-0.686V32.277z M26.942,35.434h-2.28c-0.792,0-1.436,0.644-1.436,1.436v0.743
		c0,0.792,0.644,1.437,1.436,1.437h2.28c0.792,0,1.436-0.645,1.436-1.437V36.87C28.378,36.078,27.734,35.434,26.942,35.434z
		 M27.628,37.613c0,0.379-0.308,0.687-0.686,0.687h-2.28c-0.378,0-0.686-0.308-0.686-0.687V36.87c0-0.378,0.308-0.686,0.686-0.686
		h2.28c0.378,0,0.686,0.308,0.686,0.686V37.613z M33.818,35.434h-2.28c-0.792,0-1.436,0.644-1.436,1.436v0.743
		c0,0.792,0.644,1.437,1.436,1.437h2.28c0.791,0,1.435-0.645,1.435-1.437V36.87C35.253,36.078,34.609,35.434,33.818,35.434z
		 M34.503,37.613c0,0.379-0.307,0.687-0.685,0.687h-2.28c-0.378,0-0.686-0.308-0.686-0.687V36.87c0-0.378,0.308-0.686,0.686-0.686
		h2.28c0.378,0,0.685,0.308,0.685,0.686V37.613z M40.514,35.434h-2.28c-0.792,0-1.437,0.644-1.437,1.436v0.743
		c0,0.792,0.645,1.437,1.437,1.437h2.28c0.384,0,0.744-0.149,1.016-0.421c0.271-0.271,0.42-0.632,0.419-1.016V36.87
		C41.949,36.078,41.305,35.434,40.514,35.434z M41.2,37.614L41.2,37.614c-0.001,0.183-0.071,0.355-0.201,0.484
		c-0.129,0.13-0.301,0.201-0.484,0.201h-2.28c-0.379,0-0.687-0.308-0.687-0.687v-0.743c0-0.378,0.308-0.686,0.687-0.686h2.28
		c0.378,0,0.685,0.308,0.685,0.686V37.614z M18.422,19.355c0,0.357-0.289,0.646-0.646,0.646s-0.646-0.289-0.646-0.646
		s0.289-0.646,0.646-0.646S18.422,18.998,18.422,19.355z M17.13,17.564c0-0.357,0.289-0.646,0.646-0.646s0.646,0.289,0.646,0.646
		s-0.289,0.646-0.646,0.646S17.13,17.921,17.13,17.564z M17.13,15.627c0-0.357,0.289-0.646,0.646-0.646s0.646,0.289,0.646,0.646
		s-0.289,0.646-0.646,0.646S17.13,15.984,17.13,15.627z M18.422,23.147c0,0.357-0.289,0.646-0.646,0.646s-0.646-0.289-0.646-0.646
		s0.289-0.646,0.646-0.646S18.422,22.79,18.422,23.147z M18.422,21.209c0,0.357-0.289,0.646-0.646,0.646s-0.646-0.289-0.646-0.646
		s0.289-0.646,0.646-0.646S18.422,20.852,18.422,21.209z M20.136,19.355c0,0.357-0.289,0.646-0.646,0.646s-0.646-0.289-0.646-0.646
		s0.289-0.646,0.646-0.646S20.136,18.998,20.136,19.355z M22.073,19.355c0,0.357-0.289,0.646-0.646,0.646s-0.646-0.289-0.646-0.646
		s0.289-0.646,0.646-0.646C21.784,18.709,22.073,18.998,22.073,19.355z M14.552,19.355c0,0.357-0.289,0.646-0.646,0.646
		s-0.646-0.289-0.646-0.646s0.289-0.646,0.646-0.646C14.263,18.709,14.552,18.998,14.552,19.355z M16.489,19.355
		c0,0.357-0.289,0.646-0.646,0.646s-0.646-0.289-0.646-0.646s0.289-0.646,0.646-0.646S16.489,18.998,16.489,19.355z M19.712,20.646
		c0,0.357-0.289,0.646-0.646,0.646s-0.646-0.289-0.646-0.646S18.709,20,19.066,20S19.712,20.288,19.712,20.646z M21.082,22.015
		c0,0.357-0.289,0.646-0.646,0.646s-0.646-0.289-0.646-0.646s0.289-0.646,0.646-0.646S21.082,21.658,21.082,22.015z M14.471,16.696
		c0-0.357,0.289-0.646,0.646-0.646s0.646,0.289,0.646,0.646s-0.289,0.646-0.646,0.646C14.76,17.342,14.471,17.053,14.471,16.696z
		 M15.841,18.066c0-0.357,0.289-0.646,0.646-0.646s0.646,0.289,0.646,0.646s-0.289,0.646-0.646,0.646S15.841,18.424,15.841,18.066z
		 M17.132,20.646c0,0.357-0.289,0.646-0.646,0.646s-0.646-0.289-0.646-0.646S16.129,20,16.486,20S17.132,20.288,17.132,20.646z
		 M15.762,22.015c0,0.357-0.289,0.646-0.646,0.646s-0.646-0.289-0.646-0.646s0.289-0.646,0.646-0.646S15.762,21.658,15.762,22.015z
		 M19.789,16.696c0-0.357,0.289-0.646,0.646-0.646s0.646,0.289,0.646,0.646s-0.289,0.646-0.646,0.646S19.789,17.053,19.789,16.696z
		 M18.419,18.066c0-0.357,0.289-0.646,0.646-0.646s0.646,0.289,0.646,0.646s-0.289,0.646-0.646,0.646
		C18.708,18.712,18.419,18.424,18.419,18.066z"/>
</g>
<g>
</g>
<g>
</g>
<g>
</g>
<g>
</g>
<g>
</g>
<g>
</g>
<g>
</g>
<g>
</g>
<g>
</g>
<g>
</g>
<g>
</g>
<g>
</g>
<g>
</g>
<g>
</g>
<g>
</g>
</svg>
