<svg height="457pt" viewBox="-7 0 457 457.613" width="457pt" xmlns="http://www.w3.org/2000/svg"><path d="m8.304688 105h28c14.402343.132812 26.003906 11.847656 26 26.246094v261.699218c-16.0625 4.117188-26.539063 19.5625-24.425782 36.007813 2.117188 16.445313 16.15625 28.738281 32.738282 28.660156 16.582031-.082031 30.503906-12.507812 32.460937-28.972656 1.953125-16.46875-8.667969-31.808594-24.773437-35.769531v-71.886719c10.335937 10.34375 24.382812 16.113281 39 16.015625h15.027343c4.820313 59.925781 54.855469 106.101562 114.972657 106.101562 60.121093 0 110.15625-46.175781 114.976562-106.101562h41.023438v55.941406c-16.0625 4.117188-26.539063 19.558594-24.425782 36.007813 2.117188 16.445312 16.15625 28.738281 32.738282 28.660156 16.582031-.082031 30.503906-12.507813 32.460937-28.976563 1.953125-16.464843-8.667969-31.804687-24.773437-35.769531v-215.617187c.019531-4.464844-3.53125-8.128906-8-8.246094h-99v-18.011719c7.417968-1.617187 14.230468-5.292969 19.652343-10.609375 7.257813-7.25 11.339844-17.082031 11.347657-27.339844v-32.507812c0-4.417969-3.917969-7.53125-8.335938-7.53125h-61.425781c-4.417969 0-8.238281 3.113281-8.238281 7.53125v32.507812c-.046876 18.425782 12.9375 34.316407 31 37.945313v18.015625h-65v-35.988281c.050781-8.113281-1.832032-16.125-5.5-23.363281l-20.160157-39.429688c-.933593-1.925781-1.390625-4.042969-1.339843-6.183594v-50.242187c-.042969-7.496094-6.027344-13.597657-13.519532-13.792969h-24.625c-7.558594.167969-13.652344 6.234375-13.855468 13.792969v50.527343c.082031 2.019532-.296876 4.03125-1.105469 5.882813l-19.09375 40.019531c-3.25 6.953125-4.890625 14.546875-4.800781 22.222656v36.554688h-49v-37.753906c-.003907-23.234375-18.765626-42.105469-42-42.246094h-28c-4.417969 0-8 3.582031-8 8s3.582031 8 8 8zm79 319.746094c.003906 9.296875-7.535157 16.835937-16.832032 16.835937s-16.835937-7.535156-16.835937-16.835937c.003906-9.296875 7.539062-16.832032 16.835937-16.832032 9.292969.011719 16.824219 7.539063 16.832032 16.832032zm194-311.707032v-24.039062h46v24.101562c-.023438 6.011719-2.433594 11.769532-6.699219 16.007813-6.566407 6.53125-16.402344 8.5-24.976563 4.992187-8.574218-3.503906-14.214844-11.800781-14.324218-21.0625zm-203 169.207032v-5.246094h65.441406c-6.609375 13.800781-10.539063 28.734375-11.582032 44h-14.859374c-10.3125.042969-20.21875-4.015625-27.535157-11.285156-7.316406-7.269532-11.441406-17.152344-11.464843-27.46875zm169 145.101562c-54.863282 0-99.339844-44.476562-99.34375-99.34375 0-54.867187 44.476562-99.34375 99.34375-99.34375 54.867187-.003906 99.34375 44.472656 99.347656 99.339844-.0625 54.839844-44.503906 99.28125-99.347656 99.34375zm115.144531-106.347656c-1.042969-15.265625-4.972657-30.199219-11.582031-44h52.4375v44zm65.855469 103.746094c.003906 9.296875-7.535157 16.835937-16.832032 16.835937s-16.835937-7.535156-16.835937-16.835937c.003906-9.296875 7.539062-16.832032 16.835937-16.832032 9.292969.011719 16.824219 7.539063 16.832032 16.832032zm-240-408.746094v45h-20v-45zm-41.675782 101.070312 19.175782-40.070312h25.492187c.046875 0 .089844.328125.144531.425781l20.152344 39.496094c2.496094 4.992187 3.769531 10.507813 3.710938 16.089844v1.988281h-72v-2.554688c-.050782-5.308593 1.082031-10.5625 3.324218-15.375zm-3.324218 33.929688h72v18h-72zm260 34v76h-61.980469c-20.929688-29-55.273438-48.589844-94.019531-48.589844-38.742188 0-73.085938 19.589844-94.015626 48.589844h-74.984374v-76zm0 0"/><path d="m286.304688 312v-27.769531c.070312-4.441407-3.445313-8.113281-7.886719-8.230469h-62.222657c-4.441406.117188-7.957031 3.789062-7.890624 8.230469v27.769531h-26.726563c-4.523437.105469-8.167969 3.75-8.273437 8.273438v56.933593c.148437 4.429688 3.84375 7.910157 8.273437 7.792969h131.457031c4.429688.117188 8.125-3.363281 8.269532-7.792969v-56.933593c-.105469-4.523438-3.746094-8.167969-8.269532-8.273438zm-97 16h19v41h-19zm61 41h-6v-9h6zm16 0v-17.25c.101562-2.042969-.648438-4.035156-2.070313-5.503906-1.425781-1.46875-3.394531-2.28125-5.441406-2.246094h-22.972657c-2.046874-.035156-4.015624.777344-5.441406 2.246094-1.421875 1.46875-2.171875 3.460937-2.074218 5.503906v17.25h-4v-48.019531c0-.234375.039062-.464844.039062-.707031 0-.238282-.039062-.46875-.039062-.699219v-27.574219h46v77zm39 0h-19v-41h19zm0 0"/><path d="m255.53125 300h-16.449219c-4.417969 0-8 3.582031-8 8s3.582031 8 8 8h16.449219c4.417969 0 8-3.582031 8-8s-3.582031-8-8-8zm0 0"/></svg>