<svg id="Capa_1" enable-background="new 0 0 512 512" height="512" viewBox="0 0 512 512" width="512" xmlns="http://www.w3.org/2000/svg"><path d="m256 0c-115.243 0-209 93.828-209 209.157 0 91.568 59.107 169.573 141.141 197.832v92.493c0 6.902 5.601 12.518 12.485 12.518h110.749c6.884 0 12.485-5.615 12.485-12.518v-92.492c82.033-28.26 141.14-106.265 141.14-197.833 0-115.329-93.757-209.157-209-209.157zm52.859 497h-105.718v-85.443c.781.204 1.565.385 2.349.568 16.182 4.034 33.099 6.19 50.511 6.19s34.329-2.156 50.511-6.19c.784-.183 1.567-.364 2.349-.568v85.443zm-52.859-93.686c-106.972 0-194-87.099-194-194.157s87.028-194.157 194-194.157 194 87.099 194 194.157-87.028 194.157-194 194.157z"/><path d="m407.764 133.646c-1.845-3.708-6.35-5.218-10.056-3.373-3.708 1.845-5.219 6.348-3.373 10.056 10.699 21.5 16.124 44.657 16.124 68.829 0 85.239-69.29 154.585-154.459 154.585s-154.459-69.347-154.459-154.585 69.29-154.586 154.459-154.586c48.606 0 93.416 22.231 122.938 60.994 2.509 3.295 7.217 3.932 10.511 1.422 3.295-2.51 3.932-7.216 1.422-10.511-15.488-20.334-35.687-37.173-58.414-48.693-23.838-12.085-49.562-18.212-76.457-18.212-93.44 0-169.459 76.076-169.459 169.585s76.019 169.586 169.459 169.586 169.459-76.076 169.459-169.585c0-26.512-5.954-51.918-17.695-75.512z"/><path d="m192.921 220.593c-4.142 0-7.5 3.358-7.5 7.5v64.999c0 8.887 3.117 16.494 9.231 22.577 6.111 6.153 13.515 9.273 22.004 9.273 8.509 0 15.922-3.12 22-9.241 6.147-6.114 9.264-13.521 9.264-22.014v-40.32h28.246c23.639 0 42.962-7.295 57.428-21.678 14.515-14.401 21.875-33.407 21.875-56.49 0-23.351-7.782-42.645-23.13-57.347-15.248-14.605-35.138-22.011-59.118-22.011h-55.686c-8.866 0-16.512 3.152-22.726 9.37-6.23 6.235-9.389 13.989-9.389 23.046v65.226c0 4.142 3.358 7.5 7.5 7.5s7.5-3.358 7.5-7.5v-65.226c0-5.006 1.635-9.077 5-12.444 3.39-3.393 7.24-4.973 12.115-4.973h55.686c20.264 0 36.207 5.836 48.742 17.843 12.453 11.929 18.506 27.144 18.506 46.515 0 19.204-5.705 34.198-17.445 45.847-11.723 11.655-27.05 17.321-46.857 17.321h-35.746c-4.142 0-7.5 3.358-7.5 7.5v47.82c0 4.416-1.584 8.138-4.874 11.411-3.282 3.304-6.901 4.843-11.39 4.843-4.469 0-8.08-1.539-11.394-4.875-3.258-3.242-4.842-7.158-4.842-11.975v-64.999c0-4.14-3.358-7.498-7.5-7.498z"/><path d="m244.951 211.753c.413 0 .812-.007 1.192-.013.413-.007.847-.015 1.303-.015h23.141c9.656 0 18.149-3.601 25.246-10.703 7.095-7.1 10.692-15.693 10.692-25.541 0-10.121-3.392-18.897-10.082-26.084-6.813-7.324-15.408-11.038-25.545-11.038h-24.557c-2.959 0-5.296 0-7.675 1.058-2.146.954-5.745 3.487-5.745 9.73v51.194c0 3.532 1.053 6.359 3.131 8.402 2.755 2.709 6.14 3.01 8.899 3.01zm2.97-58.394h22.977c5.884 0 10.647 2.046 14.563 6.255 4.08 4.384 6.063 9.574 6.063 15.867 0 5.808-2.062 10.694-6.303 14.938-4.24 4.243-9.027 6.305-14.635 6.305h-22.666v-43.365z"/></svg>