<svg xmlns="http://www.w3.org/2000/svg" height="512pt" version="1.1" viewBox="0 -18 512 511" width="512pt">
<g id="surface1">
<path d="M 429.917969 207.703125 C 442.0625 207.703125 451.941406 197.824219 451.941406 185.683594 L 451.941406 164.660156 C 451.941406 152.519531 442.0625 142.640625 429.917969 142.640625 C 417.777344 142.640625 407.898438 152.519531 407.898438 164.660156 L 407.898438 185.683594 C 407.898438 197.824219 417.777344 207.703125 429.917969 207.703125 Z M 422.914062 164.660156 C 422.914062 160.800781 426.058594 157.65625 429.917969 157.65625 C 433.78125 157.65625 436.925781 160.800781 436.925781 164.660156 L 436.925781 185.683594 C 436.925781 189.546875 433.78125 192.6875 429.917969 192.6875 C 426.058594 192.6875 422.914062 189.546875 422.914062 185.683594 Z M 422.914062 164.660156 " style=" stroke:none;fill-rule:nonzero;fill:rgb(0%,0%,0%);fill-opacity:1;" />
<path d="M 489.476562 260.753906 L 466.957031 260.753906 L 466.957031 237.613281 C 480.964844 236.34375 491.980469 224.539062 491.980469 210.207031 L 491.980469 140.136719 C 491.980469 124.960938 479.632812 112.609375 464.453125 112.609375 L 406.996094 112.609375 L 397.289062 76.878906 L 353.207031 12.839844 L 352.828125 12.433594 C 345.5 4.574219 335.15625 0.214844 324.414062 0.515625 L 259.726562 1.160156 L 259.59375 1.164062 C 240.132812 1.703125 220.75 6.785156 203.53125 15.867188 L 123.894531 57.886719 C 117.808594 61.105469 110.945312 62.800781 104.046875 62.800781 L 81.578125 62.808594 L 81.578125 44.5625 L 0 44.5625 L 0 59.578125 L 66.566406 59.578125 L 66.566406 224.738281 L 0 224.738281 L 0 239.753906 L 81.578125 239.753906 L 81.578125 221.507812 L 109.855469 221.5 C 116.742188 221.5 123.332031 223.632812 128.914062 227.664062 L 168.496094 256.273438 C 185.328125 268.4375 205.285156 274.785156 225.582031 274.785156 C 233.632812 274.785156 241.738281 273.785156 249.71875 271.757812 L 338.109375 249.261719 C 345.679688 247.335938 352.335938 243.335938 357.484375 237.730469 L 451.941406 237.730469 L 451.941406 260.753906 L 429.417969 260.753906 C 417 260.753906 406.898438 270.859375 406.898438 283.277344 L 406.898438 343.335938 C 406.898438 355.753906 417 365.855469 429.417969 365.855469 L 436.925781 365.855469 L 436.925781 453.441406 C 436.925781 465.859375 447.03125 475.964844 459.449219 475.964844 C 471.867188 475.964844 481.96875 465.859375 481.96875 453.441406 L 481.96875 365.855469 L 489.476562 365.855469 C 501.894531 365.855469 512 355.753906 512 343.335938 L 512 283.277344 C 512 270.859375 501.894531 260.753906 489.476562 260.753906 Z M 476.964844 140.136719 L 476.964844 210.207031 C 476.964844 217.105469 471.351562 222.71875 464.453125 222.71875 L 366.1875 222.71875 C 367.730469 217.855469 368.316406 212.769531 367.898438 207.679688 C 368.21875 207.695312 368.539062 207.703125 368.859375 207.703125 C 381.003906 207.703125 390.882812 197.824219 390.882812 185.683594 L 390.882812 164.660156 C 390.882812 152.519531 381.003906 142.640625 368.859375 142.640625 C 356.71875 142.640625 346.839844 152.519531 346.839844 164.660156 L 346.839844 175.695312 C 339.242188 171.664062 330.507812 170.207031 321.8125 171.671875 L 321.8125 140.136719 C 321.8125 133.238281 327.425781 127.625 334.328125 127.625 L 464.453125 127.625 C 471.351562 127.625 476.964844 133.238281 476.964844 140.136719 Z M 361.851562 185.683594 L 361.851562 164.660156 C 361.851562 160.800781 364.996094 157.65625 368.859375 157.65625 C 372.722656 157.65625 375.867188 160.800781 375.867188 164.660156 L 375.867188 185.683594 C 375.867188 189.546875 372.722656 192.6875 368.859375 192.6875 C 364.996094 192.6875 361.851562 189.546875 361.851562 185.683594 Z M 306.800781 140.136719 L 306.800781 175.214844 L 274.707031 183.03125 C 270.792969 183.984375 266.636719 182.988281 263.582031 180.355469 L 242.179688 161.964844 C 238.011719 158.378906 236.664062 152.582031 238.828125 147.539062 L 258.445312 98.984375 C 260.15625 95.035156 263.714844 92.285156 267.976562 91.621094 L 307.257812 85.46875 C 312.648438 84.617188 314.457031 85.570312 315.53125 86.660156 L 332.957031 112.648438 C 318.410156 113.363281 306.800781 125.417969 306.800781 140.136719 Z M 349.722656 223.082031 C 346.371094 228.921875 340.933594 233.050781 334.40625 234.710938 L 246.019531 257.207031 C 222.230469 263.257812 197.179688 258.480469 177.289062 244.105469 L 137.707031 215.496094 C 129.546875 209.601562 119.917969 206.488281 109.855469 206.488281 L 81.578125 206.492188 L 81.578125 77.824219 L 104.050781 77.816406 C 113.378906 77.816406 122.667969 75.519531 130.90625 71.167969 L 210.539062 29.148438 C 225.710938 21.144531 242.796875 16.660156 259.945312 16.175781 L 324.628906 15.527344 L 324.765625 15.523438 C 331.007812 15.347656 337.109375 17.8125 341.492188 22.304688 L 383.472656 83.28125 L 391.4375 112.613281 L 351.007812 112.613281 L 327.414062 77.417969 L 327.09375 77.054688 C 319.464844 68.351562 308.519531 70.074219 304.929688 70.636719 L 265.660156 76.789062 C 256.234375 78.257812 248.367188 84.371094 244.613281 93.144531 L 224.996094 141.703125 C 220.285156 152.777344 223.246094 165.484375 232.386719 173.351562 L 253.792969 191.742188 C 260.503906 197.523438 269.65625 199.722656 278.261719 197.621094 L 322.488281 186.847656 C 330.929688 184.789062 339.640625 187.230469 345.785156 193.378906 C 348.71875 196.3125 350.878906 199.984375 352.03125 204.003906 C 353.894531 210.46875 353.074219 217.246094 349.722656 223.082031 Z M 466.957031 453.445312 C 466.957031 457.582031 463.589844 460.953125 459.449219 460.953125 C 455.308594 460.953125 451.941406 457.582031 451.941406 453.445312 L 451.941406 365.859375 L 466.957031 365.859375 Z M 496.984375 343.335938 C 496.984375 347.476562 493.617188 350.84375 489.476562 350.84375 L 429.417969 350.84375 C 425.28125 350.84375 421.910156 347.476562 421.910156 343.335938 L 421.910156 283.277344 C 421.910156 279.136719 425.28125 275.769531 429.417969 275.769531 L 489.476562 275.769531 C 493.617188 275.769531 496.984375 279.136719 496.984375 283.277344 Z M 496.984375 343.335938 " style=" stroke:none;fill-rule:nonzero;fill:rgb(0%,0%,0%);fill-opacity:1;" />
<path d="M 294.289062 299.792969 L 309.300781 299.792969 L 309.300781 314.808594 L 294.289062 314.808594 Z M 294.289062 299.792969 " style=" stroke:none;fill-rule:nonzero;fill:rgb(0%,0%,0%);fill-opacity:1;" />
<path d="M 324.316406 299.792969 L 339.332031 299.792969 L 339.332031 314.808594 L 324.316406 314.808594 Z M 324.316406 299.792969 " style=" stroke:none;fill-rule:nonzero;fill:rgb(0%,0%,0%);fill-opacity:1;" />
<path d="M 354.347656 299.792969 L 369.359375 299.792969 L 369.359375 314.808594 L 354.347656 314.808594 Z M 354.347656 299.792969 " style=" stroke:none;fill-rule:nonzero;fill:rgb(0%,0%,0%);fill-opacity:1;" />
<path d="M 324.316406 339.832031 L 339.332031 339.832031 L 339.332031 354.847656 L 324.316406 354.847656 Z M 324.316406 339.832031 " style=" stroke:none;fill-rule:nonzero;fill:rgb(0%,0%,0%);fill-opacity:1;" />
<path d="M 264.257812 339.832031 L 279.273438 339.832031 L 279.273438 354.847656 L 264.257812 354.847656 Z M 264.257812 339.832031 " style=" stroke:none;fill-rule:nonzero;fill:rgb(0%,0%,0%);fill-opacity:1;" />
<path d="M 294.289062 339.832031 L 309.300781 339.832031 L 309.300781 354.847656 L 294.289062 354.847656 Z M 294.289062 339.832031 " style=" stroke:none;fill-rule:nonzero;fill:rgb(0%,0%,0%);fill-opacity:1;" />
<path d="M 170.257812 67.375 L 211.765625 45.472656 L 218.769531 58.75 L 177.265625 80.652344 Z M 170.257812 67.375 " style=" stroke:none;fill-rule:nonzero;fill:rgb(0%,0%,0%);fill-opacity:1;" />
<path d="M 143.699219 81.390625 L 156.980469 74.382812 L 163.984375 87.660156 L 150.707031 94.667969 Z M 143.699219 81.390625 " style=" stroke:none;fill-rule:nonzero;fill:rgb(0%,0%,0%);fill-opacity:1;" />
<path d="M 36.207031 195.152344 L 51.222656 195.152344 L 51.222656 210.167969 L 36.207031 210.167969 Z M 36.207031 195.152344 " style=" stroke:none;fill-rule:nonzero;fill:rgb(0%,0%,0%);fill-opacity:1;" />
<path d="M 439.429688 290.785156 L 479.46875 290.785156 L 479.46875 305.800781 L 439.429688 305.800781 Z M 439.429688 290.785156 " style=" stroke:none;fill-rule:nonzero;fill:rgb(0%,0%,0%);fill-opacity:1;" />
</g>
</svg>